<svg width="14" height="15" viewBox="0 0 14 15" fill="none" xmlns="http://www.w3.org/2000/svg">
<path d="M13.8549 7.28571C13.8549 6.67857 13.4531 6.14286 12.8103 6.14286H6.52455L9.14062 3.52678C9.35491 3.3125 9.47991 3.01786 9.47991 2.71428C9.47991 2.41071 9.35491 2.11607 9.14062 1.90178L8.47098 1.24107C8.2567 1.02678 7.97098 0.901785 7.66741 0.901785C7.36384 0.901785 7.0692 1.02678 6.85491 1.24107L1.04241 7.04464C0.837054 7.25893 0.712054 7.55357 0.712054 7.85714C0.712054 8.16071 0.837054 8.45536 1.04241 8.66071L6.85491 14.4821C7.0692 14.6875 7.36384 14.8125 7.66741 14.8125C7.97098 14.8125 8.26562 14.6875 8.47098 14.4821L9.14062 13.8036C9.35491 13.5982 9.47991 13.3036 9.47991 13C9.47991 12.6964 9.35491 12.4018 9.14062 12.1964L6.52455 9.57143H12.8103C13.4531 9.57143 13.8549 9.03571 13.8549 8.42857V7.28571Z" fill="#353A8D"/>
</svg>
