<svg width="18" height="15" viewBox="0 0 18 15" fill="none" xmlns="http://www.w3.org/2000/svg">
<path d="M7.07017 13C7.07017 12.2969 6.48758 11.7143 5.78446 11.7143C5.08133 11.7143 4.49874 12.2969 4.49874 13C4.49874 13.7031 5.08133 14.2857 5.78446 14.2857C6.48758 14.2857 7.07017 13.7031 7.07017 13ZM16.0702 13C16.0702 12.2969 15.4876 11.7143 14.7845 11.7143C14.0813 11.7143 13.4987 12.2969 13.4987 13C13.4987 13.7031 14.0813 14.2857 14.7845 14.2857C15.4876 14.2857 16.0702 13.7031 16.0702 13ZM17.3559 2.07143C17.3559 1.71987 17.0646 1.42857 16.713 1.42857H4.64941C4.54897 0.946428 4.52888 0.142857 3.85589 0.142857H1.28446C0.932896 0.142857 0.641602 0.434151 0.641602 0.785714C0.641602 1.13728 0.932896 1.42857 1.28446 1.42857H3.33357L5.11147 9.69531C4.95075 10.0067 4.49874 10.76 4.49874 11.0714C4.49874 11.423 4.79004 11.7143 5.1416 11.7143H15.4273C15.7789 11.7143 16.0702 11.423 16.0702 11.0714C16.0702 10.7199 15.7789 10.4286 15.4273 10.4286H6.18624C6.28669 10.2277 6.42732 10.0167 6.42732 9.78571C6.42732 9.54464 6.34696 9.31362 6.29674 9.08259L16.7833 7.85714C17.1048 7.81696 17.3559 7.53571 17.3559 7.21429V2.07143Z" fill="white"/>
</svg>
