<svg width="15" height="12" viewBox="0 0 15 12" fill="none" xmlns="http://www.w3.org/2000/svg">
<path d="M12.6417 7.14286C12.6417 7.125 12.6417 7.10714 12.6328 7.08929L7.49888 2.85714L2.36496 7.08929C2.36496 7.10714 2.35603 7.125 2.35603 7.14286V11.4286C2.35603 11.7411 2.61496 12 2.92746 12H6.35603V8.57143H8.64174V12H12.0703C12.3828 12 12.6417 11.7411 12.6417 11.4286V7.14286ZM14.6328 6.52679C14.731 6.41071 14.7132 6.22321 14.5971 6.125L12.6417 4.5V0.857142C12.6417 0.696428 12.5167 0.571428 12.356 0.571428H10.6417C10.481 0.571428 10.356 0.696428 10.356 0.857142V2.59821L8.17746 0.776785C7.80246 0.464285 7.19531 0.464285 6.82031 0.776785L0.40067 6.125C0.284598 6.22321 0.266741 6.41071 0.364955 6.52679L0.918527 7.1875C0.96317 7.24107 1.0346 7.27679 1.10603 7.28571C1.18638 7.29464 1.25781 7.26786 1.32031 7.22321L7.49888 2.07143L13.6775 7.22321C13.731 7.26786 13.7935 7.28571 13.865 7.28571C13.8739 7.28571 13.8828 7.28571 13.8917 7.28571C13.9632 7.27679 14.0346 7.24107 14.0792 7.1875L14.6328 6.52679Z" fill="#353A8D"/>
</svg>
